<svg id="Layer_1" data-name="Layer 1" xmlns="http://www.w3.org/2000/svg" viewBox="0 0 1283.19 218.18"><defs><style>.cls-1{fill:#fff;}</style></defs><path class="cls-1" d="M49.54,218.18H7.35L84.16,0H133l76.92,218.18H167.68L109.41,44.74h-1.7Zm1.38-85.55H166v31.75H50.92Z" transform="translate(-7.35)"/><path class="cls-1" d="M242.9,0l56.78,171.73h2.24L358.59,0h43.47L325.14,218.18H276.35L199.54,0Z" transform="translate(-7.35)"/><path class="cls-1" d="M433.27,218.18H391.08L467.9,0h48.79l76.92,218.18H551.42L493.14,44.74h-1.7Zm1.39-85.55H549.71v31.75h-115Z" transform="translate(-7.35)"/><path class="cls-1" d="M801.66,0V218.18H766.51L663.7,69.57h-1.81V218.18H622.37V0h35.37L760.43,148.72h1.92V0Z" transform="translate(-7.35)"/><path class="cls-1" d="M872.61,218.18H830.42L907.24,0H956L1033,218.18H990.76L932.48,44.74h-1.7ZM874,132.63h115v31.75H874Z" transform="translate(-7.35)"/><path class="cls-1" d="M1061.71,0h48.36l64.77,158.1h2.56L1242.17,0h48.37V218.18h-37.93V68.29h-2l-60.3,149.25H1162L1101.66,68h-2V218.18h-37.92Z" transform="translate(-7.35)"/></svg>